HIERARCHY
ROOT hip
{
	OFFSET 0.000000 0.000000 0.000000 
	CHANNELS 6 Xposition Yposition Zposition Xrotation Zrotation Yrotation
	JOINT abdomen
	{
		OFFSET 0.000000 3.402643 0.000000 
		CHANNELS 3 Xrotation Zrotation Yrotation
		JOINT chest
		{
			OFFSET 0.000000 8.438565 -0.680529 
			CHANNELS 3 Xrotation Zrotation Yrotation
			JOINT neck
			{
				OFFSET 0.000000 10.207942 -0.272212 
				CHANNELS 3 Xrotation Zrotation Yrotation
				JOINT head
				{
					OFFSET 0.000000 3.130431 0.000000 
					CHANNELS 3 Xrotation Zrotation Yrotation
					End Site
					{
						OFFSET 0.000000 3.130435 0.000000 
					}
				}
			}
			JOINT lCollar
			{
				OFFSET 3.470700 6.669187 -0.816635 
				CHANNELS 3 Yrotation Zrotation Xrotation
				JOINT lShldr
				{
					OFFSET 3.198488 0.000000 0.000000 
					CHANNELS 3 Zrotation Yrotation Xrotation
					JOINT lForeArm
					{
						OFFSET 10.139888 0.000000 0.000000 
						CHANNELS 3 Yrotation Zrotation Xrotation
						JOINT lHand
						{
							OFFSET 8.370511 0.000000 0.000000 
							CHANNELS 3 Zrotation Yrotation Xrotation
							End Site
							{
								OFFSET 4.083176 0.000000 0.000000 
							}
						}
					}
				}
			}
			JOINT rCollar
			{
				OFFSET -3.470700 6.669187 -0.816635 
				CHANNELS 3 Yrotation Zrotation Xrotation
				JOINT rShldr
				{
					OFFSET -3.198488 0.000000 0.000000 
					CHANNELS 3 Zrotation Yrotation Xrotation
					JOINT rForeArm
					{
						OFFSET -10.139888 0.000000 0.000000 
						CHANNELS 3 Yrotation Zrotation Xrotation
						JOINT rHand
						{
							OFFSET -8.370511 0.000000 0.000000 
							CHANNELS 3 Zrotation Yrotation Xrotation
							End Site
							{
								OFFSET -4.083176 0.000000 0.000000 
							}
						}
					}
				}
			}
		}
	}
	JOINT lThigh
	{
		OFFSET 5.308129 -1.633274 1.361059 
		CHANNELS 3 Xrotation Zrotation Yrotation
		JOINT lShin
		{
			OFFSET -2.041588 -20.007561 0.000000 
			CHANNELS 3 Xrotation Zrotation Yrotation
			JOINT lFoot
			{
				OFFSET 0.000000 -19.190928 -1.224953 
				CHANNELS 3 Xrotation Yrotation Zrotation
				End Site
				{
					OFFSET 0.000000 -2.449906 4.627600 
				}
			}
		}
	}
	JOINT rThigh
	{
		OFFSET -5.308129 -1.633274 1.361059 
		CHANNELS 3 Xrotation Zrotation Yrotation
		JOINT rShin
		{
			OFFSET 2.041588 -20.007561 0.000000 
			CHANNELS 3 Xrotation Zrotation Yrotation
			JOINT rFoot
			{
				OFFSET 0.000000 -19.190928 -1.224953 
				CHANNELS 3 Xrotation Yrotation Zrotation
				End Site
				{
					OFFSET 0.000000 -2.449906 4.627600 
				}
			}
		}
	}
}
MOTION
Frames: 6
Frame Time: 0.016667
-3.179921 17.658260 -1.054873 86.471367 -33.123764 5.656353 0.019648 -0.048828 -0.136727 4.329816 -0.146439 -1.425802 -28.181490 1.914105 -5.764690 -30.967993 13.909719 -5.634201 -16.315956 28.985428 2.920610 8.991670 27.377022 -3.207468 -37.623489 6.150088 -0.125125 8.893874 38.308632 -8.912173 17.096502 -11.301424 0.381508 6.836328 -36.832565 -11.340219 23.088173 -5.860579 -0.974129 -11.411028 -23.929060 -18.158939 -1.463140 1.794530 4.649152 3.681259 -1.304740 3.727927 35.103039 -5.390635 -8.956381 -2.348862 -0.204356 -3.577014 6.052454 1.044560 -1.500160 34.745235 1.614179 5.127394 
-3.419798 17.570164 -0.922021 86.932381 -32.986469 5.228929 0.009874 -0.048828 -0.126961 4.142689 -0.097634 -1.210953 -28.439001 1.923555 -5.843098 -31.041512 13.888655 -5.702887 -17.330198 27.311455 3.467844 7.399770 27.537548 0.521823 -32.286190 5.582078 -0.505832 9.131796 38.508389 -8.806259 17.386793 -8.790365 0.217818 7.813567 -34.735901 -8.410703 20.383284 -6.038872 -0.119200 -12.593141 -23.830811 -16.331188 -0.946115 1.394612 4.529958 3.259226 -1.357302 3.826519 35.626110 -5.634486 -9.002728 -2.224192 0.000057 -3.480933 6.077474 1.063223 -1.459175 34.899117 1.745013 5.101993 
-3.659652 17.482031 -0.788999 87.390823 -32.847569 4.801472 0.000100 -0.048828 -0.117196 3.956087 -0.058585 -0.986338 -28.706305 1.932998 -5.921178 -31.106222 13.877288 -5.773918 -18.309130 25.636908 3.973481 5.819056 27.778479 4.251829 -26.962252 4.981691 -0.830306 9.352206 38.698883 -8.727566 17.681936 -6.281034 0.056560 8.894949 -32.684555 -5.508392 17.689825 -6.267488 0.730404 -13.780810 -23.701614 -14.491962 -0.429669 0.985759 4.416445 2.837548 -1.395364 3.876752 36.175812 -5.884163 -9.101569 -2.072003 0.214927 -3.411352 6.113796 1.072235 -1.408255 35.046017 1.844516 5.093750 
-3.894072 17.383287 -0.596225 87.810539 -32.737900 4.330604 0.000073 -0.039062 -0.107429 3.905198 0.078118 -0.771484 -29.090099 2.069134 -5.882464 -31.046011 13.812533 -5.631863 -18.719694 22.819767 4.261944 3.432170 26.572624 6.148247 -21.247686 4.239383 -0.858106 8.984246 38.171318 -7.193170 16.852591 -3.816520 0.103232 9.793930 -29.095055 -1.687968 14.949838 -5.874173 1.415543 -14.195168 -25.478846 -11.363408 -0.136259 0.701294 4.360768 2.692850 -1.415645 3.923078 36.516277 -6.172877 -9.113764 -1.972802 0.321673 -3.389420 6.226077 1.101922 -1.362856 35.170818 1.968480 5.040396 
-4.128380 17.284611 -0.403321 88.223679 -32.636463 3.846212 -0.009699 -0.039062 -0.097663 3.845664 0.205068 -0.556637 -29.483103 2.205325 -5.834388 -30.976370 13.747665 -5.487491 -19.117498 19.996099 4.517013 1.015449 25.437950 8.058980 -15.537958 3.506567 -0.810529 8.603350 37.647625 -5.665473 16.019953 -1.364817 0.178525 10.942960 -25.564186 2.056301 12.220684 -5.530703 2.115798 -14.734397 -27.224684 -8.176898 0.157155 0.411213 4.303263 2.556145 -1.435225 3.949473 36.859104 -6.447772 -9.133042 -1.855274 0.448913 -3.374675 6.324137 1.102450 -1.328853 35.302628 2.116233 4.988256 
-4.326714 17.209352 -0.164204 88.539360 -32.561115 3.415722 -0.009721 -0.029297 -0.087896 3.884771 0.380854 -0.292962 -29.734280 2.361653 -5.619705 -30.920021 13.734932 -5.177257 -18.984343 17.316593 5.082606 -2.206958 23.103230 8.530955 -10.589219 2.806230 -0.749718 7.615751 36.089111 -4.463391 15.860697 -0.085829 0.488496 13.431241 -22.011215 5.982100 8.959486 -4.654177 1.493172 -13.663373 -30.071283 -6.938023 0.263511 0.251132 4.255992 2.627887 -1.449695 3.955302 37.076183 -6.692947 -9.179412 -1.763241 0.487716 -3.346415 6.509397 1.121932 -1.328952 35.330048 2.222070 5.002213 
